<svg width="95" height="94" xmlns="http://www.w3.org/2000/svg" xmlns:xlink="http://www.w3.org/1999/xlink" xml:space="preserve" overflow="hidden"><g transform="translate(-231 -93)"><path d="M22.5208 13.7083 71.4792 13.7083 71.4792 80.2917 22.5208 80.2917 22.5208 13.7083ZM16.6458 86.1667 77.3542 86.1667 77.3542 7.83333 16.6458 7.83333 16.6458 86.1667Z" stroke="#BFBFBF" fill="#BFBFBF" transform="matrix(1.01064 0 0 1 231 93)"/><path d="M29.375 19.5833 37.2083 19.5833 37.2083 27.4167 29.375 27.4167Z" stroke="#BFBFBF" fill="#BFBFBF" transform="matrix(1.01064 0 0 1 231 93)"/><path d="M45.0417 21.5417 64.625 21.5417 64.625 25.4583 45.0417 25.4583Z" stroke="#BFBFBF" fill="#BFBFBF" transform="matrix(1.01064 0 0 1 231 93)"/><path d="M29.375 35.25 37.2083 35.25 37.2083 43.0833 29.375 43.0833Z" stroke="#BFBFBF" fill="#BFBFBF" transform="matrix(1.01064 0 0 1 231 93)"/><path d="M45.0417 37.2083 64.625 37.2083 64.625 41.125 45.0417 41.125Z" stroke="#BFBFBF" fill="#BFBFBF" transform="matrix(1.01064 0 0 1 231 93)"/><path d="M29.375 50.9167 37.2083 50.9167 37.2083 58.75 29.375 58.75Z" stroke="#BFBFBF" fill="#BFBFBF" transform="matrix(1.01064 0 0 1 231 93)"/><path d="M45.0417 52.875 64.625 52.875 64.625 56.7917 45.0417 56.7917Z" stroke="#BFBFBF" fill="#BFBFBF" transform="matrix(1.01064 0 0 1 231 93)"/><path d="M29.375 66.5833 37.2083 66.5833 37.2083 74.4167 29.375 74.4167Z" stroke="#BFBFBF" fill="#BFBFBF" transform="matrix(1.01064 0 0 1 231 93)"/><path d="M45.0417 68.5417 64.625 68.5417 64.625 72.4583 45.0417 72.4583Z" stroke="#BFBFBF" fill="#BFBFBF" transform="matrix(1.01064 0 0 1 231 93)"/></g></svg>