<svg width="76" height="76" xmlns="http://www.w3.org/2000/svg" xmlns:xlink="http://www.w3.org/1999/xlink" xml:space="preserve" overflow="hidden"><g transform="translate(-121 -371)"><path d="M182.75 422.933 171.912 405.659C171.718 405.343 171.373 405.15 171.002 405.152 170.629 405.152 170.282 405.344 170.083 405.659L166.917 410.742 173.709 421.73C174.284 422.599 174.408 423.691 174.042 424.667L181.721 424.667C182.35 424.699 182.885 424.214 182.916 423.585 182.928 423.356 182.87 423.129 182.75 422.933Z" stroke="#2196F3" stroke-width="1.01333" fill="#2196F3"/><path d="M170.954 423.036 153.735 395.019C153.514 394.734 153.17 394.572 152.809 394.584L152.667 394.584 152.524 394.584C152.163 394.572 151.819 394.734 151.598 395.019L134.379 423.036C134.135 423.378 134.102 423.826 134.292 424.2 134.484 424.539 134.865 424.724 135.25 424.667L170.083 424.667C170.468 424.724 170.849 424.539 171.041 424.2 171.232 423.826 171.198 423.378 170.954 423.036ZM155.548 408.145 152.809 410.583 150.07 408.145 145.542 410.884 152.667 399.334 159.602 410.583Z" stroke="#2196F3" stroke-width="1.01333" fill="#2196F3"/><path d="M144.75 396.333C144.75 397.645 143.687 398.708 142.375 398.708 141.063 398.708 140 397.645 140 396.333 140 395.022 141.063 393.958 142.375 393.958 143.687 393.958 144.75 395.022 144.75 396.333Z" stroke="#2196F3" stroke-width="1.01333" fill="#2196F3"/><path d="M132.083 429.583 132.083 390 185.917 390 185.917 429.583ZM190.667 434.333 190.667 385.25 127.333 385.25 127.333 434.333Z" stroke="#2196F3" stroke-width="1.01333" fill="#2196F3"/></g></svg>