<svg width="76" height="76" xmlns="http://www.w3.org/2000/svg" xmlns:xlink="http://www.w3.org/1999/xlink" xml:space="preserve" overflow="hidden"><g transform="translate(-333 -102)"><path d="M394.75 153.933 383.912 136.659C383.718 136.343 383.373 136.15 383.002 136.152 382.629 136.152 382.282 136.344 382.083 136.659L378.917 141.742 385.709 152.73C386.284 153.599 386.408 154.691 386.042 155.667L393.721 155.667C394.35 155.699 394.885 155.214 394.916 154.585 394.928 154.356 394.87 154.129 394.75 153.933Z" stroke="#BFBFBF" stroke-width="1.01333" fill="#BFBFBF"/><path d="M382.954 154.036 365.735 126.019C365.514 125.734 365.17 125.572 364.809 125.584L364.667 125.584 364.524 125.584C364.163 125.572 363.819 125.734 363.598 126.019L346.379 154.036C346.135 154.378 346.102 154.826 346.292 155.2 346.484 155.539 346.865 155.724 347.25 155.667L382.083 155.667C382.468 155.724 382.849 155.539 383.041 155.2 383.232 154.826 383.198 154.378 382.954 154.036ZM367.548 139.145 364.809 141.583 362.07 139.145 357.542 141.884 364.667 130.334 371.602 141.583Z" stroke="#BFBFBF" stroke-width="1.01333" fill="#BFBFBF"/><path d="M356.75 127.333C356.75 128.645 355.687 129.708 354.375 129.708 353.063 129.708 352 128.645 352 127.333 352 126.022 353.063 124.958 354.375 124.958 355.687 124.958 356.75 126.022 356.75 127.333Z" stroke="#BFBFBF" stroke-width="1.01333" fill="#BFBFBF"/><path d="M344.083 160.583 344.083 121 397.917 121 397.917 160.583ZM402.667 165.333 402.667 116.25 339.333 116.25 339.333 165.333Z" stroke="#BFBFBF" stroke-width="1.01333" fill="#BFBFBF"/></g></svg>