<svg width="305" height="234" xmlns="http://www.w3.org/2000/svg" xmlns:xlink="http://www.w3.org/1999/xlink" xml:space="preserve" overflow="hidden"><defs><clipPath id="clip0"><path d="M1935.45 1877.87 2082.28 1930.29 2029.85 2077.12 1883.02 2024.69Z" fill-rule="evenodd" clip-rule="evenodd"/></clipPath><clipPath id="clip1"><path d="M1935.45 1877.87 2082.28 1930.29 2029.85 2077.12 1883.02 2024.69Z" fill-rule="evenodd" clip-rule="evenodd"/></clipPath><clipPath id="clip2"><path d="M1935.45 1877.87 2082.28 1930.29 2029.85 2077.12 1883.02 2024.69Z" fill-rule="evenodd" clip-rule="evenodd"/></clipPath></defs><g transform="translate(-1778 -1850)"><g><g><g><path d="M1834.06 1884.13 1955.94 1884.13 1955.94 2049.88 1834.06 2049.88 1834.06 1884.13ZM1819.44 2064.5 1970.56 2064.5 1970.56 1869.5 1819.44 1869.5 1819.44 2064.5Z" stroke="#FF0000" stroke-width="1.90419" fill="#FF0000"/><path d="M1851.12 1898.75 1870.62 1898.75 1870.62 1918.25 1851.12 1918.25Z" stroke="#FF0000" stroke-width="1.90419" fill="#FF0000"/><path d="M1890.12 1903.63 1938.88 1903.63 1938.88 1913.38 1890.12 1913.38Z" stroke="#FF0000" stroke-width="1.90419" fill="#FF0000"/><path d="M1851.12 1937.75 1870.62 1937.75 1870.62 1957.25 1851.12 1957.25Z" stroke="#FF0000" stroke-width="1.90419" fill="#FF0000"/><path d="M1890.12 1942.63 1938.88 1942.63 1938.88 1952.38 1890.12 1952.38Z" stroke="#FF0000" stroke-width="1.90419" fill="#FF0000"/><path d="M1851.12 1976.75 1870.62 1976.75 1870.62 1996.25 1851.12 1996.25Z" stroke="#FF0000" stroke-width="1.90419" fill="#FF0000"/><path d="M1890.12 1981.63 1938.88 1981.63 1938.88 1991.38 1890.12 1991.38Z" stroke="#FF0000" stroke-width="1.90419" fill="#FF0000"/><path d="M1851.12 2015.75 1870.62 2015.75 1870.62 2035.25 1851.12 2035.25Z" stroke="#FF0000" stroke-width="1.90419" fill="#FF0000"/><path d="M1890.12 2020.63 1938.88 2020.63 1938.88 2030.38 1890.12 2030.38Z" stroke="#FF0000" stroke-width="1.90419" fill="#FF0000"/></g></g></g><g clip-path="url(#clip0)"><g clip-path="url(#clip1)"><g clip-path="url(#clip2)"><path d="M2018.92 2020.79 2009.9 1979.94C2009.74 1979.2 2009.21 1978.59 2008.49 1978.34 2007.77 1978.08 2006.97 1978.21 2006.37 1978.68L1996.74 1986.32 2002.29 2012.23C2002.8 2014.31 2002.28 2016.5 2000.9 2018.14L2015.74 2023.43C2016.93 2023.93 2018.3 2023.36 2018.79 2022.17 2018.97 2021.73 2019.02 2021.25 2018.92 2020.79Z" stroke="#00B050" stroke-width="2.07874" fill="#00B050"/><path d="M1996.06 2012.85 1982.12 1946.85C1981.89 1946.15 1981.34 1945.6 1980.63 1945.37L1980.36 1945.27 1980.08 1945.17C1979.39 1944.9 1978.62 1944.98 1977.99 1945.38L1925.4 1987.63C1924.69 1988.12 1924.32 1988.96 1924.43 1989.81 1924.57 1990.6 1925.18 1991.22 1925.96 1991.38L1993.25 2015.4C1993.96 2015.78 1994.82 2015.69 1995.43 2015.16 1996.05 2014.57 1996.3 2013.68 1996.06 2012.85ZM1976.57 1973.46 1969.6 1976.28 1965.99 1969.68 1955.35 1971.85 1977.08 1954.45 1982.72 1980.97Z" stroke="#00B050" stroke-width="2.07874" fill="#00B050"/><path d="M1963.86 1943.19C1962.95 1945.73 1960.16 1947.05 1957.63 1946.14 1955.1 1945.24 1953.78 1942.45 1954.68 1939.91 1955.59 1937.38 1958.37 1936.06 1960.91 1936.96 1963.44 1937.87 1964.76 1940.66 1963.86 1943.19Z" stroke="#00B050" stroke-width="2.07874" fill="#00B050"/><path d="M1916.45 1998.69 1943.75 1922.22 2047.76 1959.35 2020.45 2035.82ZM2026.35 2048.28 2060.21 1953.45 1937.85 1909.76 1904 2004.59Z" stroke="#00B050" stroke-width="2.07874" fill="#00B050"/></g></g></g></g></svg>