<svg width="207" height="206" xmlns="http://www.w3.org/2000/svg" xmlns:xlink="http://www.w3.org/1999/xlink" xml:space="preserve" overflow="hidden"><g transform="translate(-1844 -2094)"><path d="M1846.5 2130C1846.5 2111.5 1861.5 2096.5 1880 2096.5L2015 2096.5C2033.5 2096.5 2048.5 2111.5 2048.5 2130L2048.5 2264C2048.5 2282.5 2033.5 2297.5 2015 2297.5L1880 2297.5C1861.5 2297.5 1846.5 2282.5 1846.5 2264Z" stroke="#FF0000" stroke-width="4.58333" stroke-miterlimit="8" fill="#FF0000" fill-rule="evenodd"/><g><g><g><path d="M24.9166 15.1666 79.0832 15.1666 79.0832 88.8332 24.9166 88.8332 24.9166 15.1666ZM18.4166 95.3331 85.5832 95.3331 85.5832 8.66665 18.4166 8.66665 18.4166 95.3331Z" stroke="#F2F2F2" stroke-width="0.846353" fill="#FFFFFF" transform="matrix(1 0 0 1 1895 2144)"/><path d="M32.4999 21.6666 41.1666 21.6666 41.1666 30.3333 32.4999 30.3333Z" stroke="#F2F2F2" stroke-width="0.846353" fill="#FFFFFF" transform="matrix(1 0 0 1 1895 2144)"/><path d="M49.8332 23.8333 71.4999 23.8333 71.4999 28.1666 49.8332 28.1666Z" stroke="#F2F2F2" stroke-width="0.846353" fill="#FFFFFF" transform="matrix(1 0 0 1 1895 2144)"/><path d="M32.4999 38.9999 41.1666 38.9999 41.1666 47.6666 32.4999 47.6666Z" stroke="#F2F2F2" stroke-width="0.846353" fill="#FFFFFF" transform="matrix(1 0 0 1 1895 2144)"/><path d="M49.8332 41.1666 71.4999 41.1666 71.4999 45.4999 49.8332 45.4999Z" stroke="#F2F2F2" stroke-width="0.846353" fill="#FFFFFF" transform="matrix(1 0 0 1 1895 2144)"/><path d="M32.4999 56.3332 41.1666 56.3332 41.1666 64.9999 32.4999 64.9999Z" stroke="#F2F2F2" stroke-width="0.846353" fill="#FFFFFF" transform="matrix(1 0 0 1 1895 2144)"/><path d="M49.8332 58.4999 71.4999 58.4999 71.4999 62.8332 49.8332 62.8332Z" stroke="#F2F2F2" stroke-width="0.846353" fill="#FFFFFF" transform="matrix(1 0 0 1 1895 2144)"/><path d="M32.4999 73.6665 41.1666 73.6665 41.1666 82.3332 32.4999 82.3332Z" stroke="#F2F2F2" stroke-width="0.846353" fill="#FFFFFF" transform="matrix(1 0 0 1 1895 2144)"/><path d="M49.8332 75.8332 71.4999 75.8332 71.4999 80.1665 49.8332 80.1665Z" stroke="#F2F2F2" stroke-width="0.846353" fill="#FFFFFF" transform="matrix(1 0 0 1 1895 2144)"/></g></g></g></g></svg>