<svg width="96" height="96" xmlns="http://www.w3.org/2000/svg" xmlns:xlink="http://www.w3.org/1999/xlink" xml:space="preserve" overflow="hidden"><g transform="translate(-289 -234)"><path d="M342 238 332 238C325.4 238 320 243.4 320 250L320 305.5 330 305.5 330 319C330 322.9 333.1 326 337 326 340.9 326 344 322.9 344 319L344 305.5 354 305.5 354 250C354 243.4 348.6 238 342 238ZM328.7 293 328.7 250.5C328.7 249.4 329.6 248.5 330.7 248.5 331.8 248.5 332.7 249.4 332.7 250.5L332.7 293C332.7 294.1 331.8 295 330.7 295 329.6 295 328.7 294.1 328.7 293ZM337 322C335.3 322 334 320.7 334 319L334 305.5 340 305.5 340 319C340 320.7 338.7 322 337 322ZM345.3 293C345.3 294.1 344.4 295 343.3 295 342.2 295 341.3 294.1 341.3 293L341.3 250.5C341.3 249.4 342.2 248.5 343.3 248.5 344.4 248.5 345.3 249.4 345.3 250.5L345.3 293Z" stroke="#FFFFFF" fill="#FFFFFF"/></g></svg>