<svg width="96" height="96" xmlns="http://www.w3.org/2000/svg" xmlns:xlink="http://www.w3.org/1999/xlink" xml:space="preserve" overflow="hidden"><defs><clipPath id="clip0"><rect x="254" y="126" width="96" height="96"/></clipPath></defs><g clip-path="url(#clip0)" transform="translate(-254 -126)"><path d="M340.8 190.7C341.9 195.3 337.2 199.8 332.6 197.9 328.7 196.5 327.2 192 329.9 188.1 336 180 331.5 167.3 321.4 162.9 326 171.6 319 179.5 314.9 182.9 310.9 186.2 308.2 189.7 307.4 191.7 303.3 201.6 309.4 211.1 313.6 213.4 311.7 209.1 310 201 317.4 193.3 317.4 193.3 315.3 201.5 319.9 207.1 324.5 212.8 324.5 217 324.5 217 332 217 338.7 212.5 341.5 205.6 343.5 201.3 343.7 194.6 340.8 190.7Z" stroke="#FFFFFF" fill="#FFFFFF"/><path d="M335.4 132.6C334.6 131.8 333.4 131.8 332.6 132.6L328.9 136.3 328.1 135.5C325 132.4 319.9 132.4 316.8 135.5L311.8 140.5C308.7 143.6 308.7 148.7 311.8 151.8L312.6 152.6 310.2 155 309.4 154.2C306.3 151.1 301.2 151.1 298.1 154.2 298.1 154.2 298.1 154.2 298.1 154.2L293.1 159.2C290 162.3 290 167.4 293.1 170.5 293.1 170.5 293.1 170.5 293.1 170.5L293.9 171.3 287.8 177.4 287.8 174.5C287.8 173.4 286.9 172.5 285.8 172.5 284.7 172.5 283.8 173.4 283.8 174.5L283.8 181.4 276.3 188.9 276.3 188.9 271 194.1 271 188C271 186.9 270.1 186 269 186 267.9 186 267 186.9 267 188L267 198.1 262 203.1C261.2 203.9 261.2 205.1 262 205.9 262.8 206.7 264 206.7 264.8 205.9 264.8 205.9 264.8 205.9 264.8 205.9L270.3 200.4 270.3 200.4 278.4 192.3 289.8 192.3C290.9 192.3 291.8 191.4 291.8 190.3 291.8 189.2 290.9 188.3 289.8 188.3L282.4 188.3 287 183.7 287 183.7 296.6 174.2 297.4 175C300.5 178.1 305.6 178.1 308.7 175L313.7 170C316.8 166.9 316.8 161.8 313.7 158.7L313 157.8 315.3 155.5 316.1 156.3 316.1 156.3C319.2 159.4 324.3 159.4 327.4 156.3L332.4 151.3C335.5 148.2 335.5 143.1 332.4 140L331.6 139.2 335.3 135.5C336.2 134.6 336.2 133.4 335.4 132.6 335.4 132.6 335.4 132.6 335.4 132.6ZM306.6 157 307.4 157.8C306.8 158.7 307.2 160 308.1 160.5 308.7 160.9 309.5 160.9 310.1 160.5L310.9 161.3C311.7 162.1 312.1 163.1 312.1 164.2 310.3 163.2 308.7 162 307.3 160.5 305.9 159.1 304.6 157.5 303.6 155.7 303.6 155.7 303.7 155.7 303.7 155.7 304.8 155.8 305.9 156.3 306.6 157ZM306 172C304.4 173.5 301.9 173.5 300.3 172L296 167.7C294.4 166.1 294.4 163.6 296 162 296 162 296 162 296 162L300.2 157.8C301.4 159.9 302.8 161.8 304.5 163.5 306.2 165.2 308.1 166.7 310.2 167.8L306 172ZM325.2 138.4 326 139.2C325.4 140.1 325.8 141.4 326.7 141.9 327.3 142.3 328.1 142.3 328.7 141.9L329.5 142.7C330.3 143.5 330.7 144.5 330.7 145.6 328.9 144.6 327.3 143.4 325.9 141.9 324.5 140.5 323.2 138.9 322.3 137.1 323.4 137.2 324.5 137.6 325.2 138.4ZM324.6 153.4C323 155 320.5 155 318.9 153.4L314.6 149C313 147.4 313 144.9 314.6 143.3L318.8 139.1C320 141.2 321.4 143.1 323.1 144.8 324.8 146.5 326.7 148 328.8 149.1L324.6 153.4Z" stroke="#FFFFFF" fill="#FFFFFF"/></g></svg>