<svg width="96" height="96" xmlns="http://www.w3.org/2000/svg" xmlns:xlink="http://www.w3.org/1999/xlink" xml:space="preserve" overflow="hidden"><g transform="translate(-35 -457)"><path d="M111.7 471 54.5 471C46.6 471 40.2 477.4 40.2 485.3L40.2 524.8C40.2 532.7 46.6 539.1 54.5 539.1L111.7 539.1C119.6 539 126 532.6 126 524.7L126 485.3C126 477.4 119.6 471 111.7 471ZM120 485.3 120 501.3 77.6 501.3 77.6 477 111.7 477C116.3 477 120 480.7 120 485.3ZM46.3 524.7 46.3 485.3C46.3 480.7 50 477 54.6 477L73.7 477 73.7 533 54.5 533C50 533 46.3 529.3 46.3 524.7ZM111.7 533 77.6 533 77.6 505.2 120 505.2 120 524.7C120 529.3 116.3 533 111.7 533Z" stroke="#FFFFFF" fill="#FFFFFF"/><path d="M85.6 508C84 508.2 82.8 509.7 83 511.3 83 511.3 83 511.3 83 511.3 84.1 520.5 82.8 526.2 82.8 526.3 82.4 527.9 83.4 529.5 85.1 529.9 86.7 530.3 88.3 529.3 88.7 527.7 88.8 527.4 90.3 521 89.1 510.6 88.7 509 87.3 507.8 85.6 508Z" stroke="#FFFFFF" fill="#FFFFFF"/><path d="M98 508C96.4 508.2 95.2 509.7 95.4 511.3 95.4 511.3 95.4 511.3 95.4 511.3 96.5 520.5 95.2 526.2 95.2 526.3 94.8 527.9 95.8 529.5 97.5 529.9 99.1 530.3 100.7 529.3 101.1 527.7 101.2 527.4 102.7 521 101.5 510.6 101.1 509 99.7 507.8 98 508Z" stroke="#FFFFFF" fill="#FFFFFF"/><path d="M110.4 508C108.8 508.2 107.6 509.7 107.8 511.3 107.8 511.3 107.8 511.3 107.8 511.3 108.9 520.5 107.6 526.2 107.6 526.3 107.2 527.9 108.2 529.5 109.9 529.9 111.5 530.3 113.1 529.3 113.5 527.7 113.6 527.4 115.1 521 113.9 510.6 113.5 509 112.1 507.8 110.4 508Z" stroke="#FFFFFF" fill="#FFFFFF"/><path d="M60.6 480C45.5 494.2 52.2 509.7 57.1 517.2 52.4 523 51.5 531 51.5 531L51.5 531 60.6 524.5 69.7 531 69.7 531C69.7 531 68.8 523 64.1 517.2 69 509.7 75.7 494.2 60.6 480ZM53.7 495.6C53.5 495.1 53.7 494.5 54.2 494.3 54.2 494.3 54.2 494.3 54.2 494.3L63.9 489.9C64.4 489.7 65 489.9 65.2 490.4 65.4 490.9 65.2 491.5 64.7 491.7L55 496.1C54.5 496.3 53.9 496.1 53.7 495.6L53.7 495.6ZM54.7 502.9C54.5 502.4 54.7 501.8 55.2 501.6 55.2 501.6 55.2 501.6 55.2 501.6L64.9 497.2C65.4 497 66 497.2 66.2 497.7 66.4 498.2 66.2 498.8 65.7 499L56 503.4C55.5 503.6 54.9 503.4 54.7 502.9L54.7 502.9ZM56.6 510.8C56 510.8 55.6 510.4 55.6 509.8 55.6 509.4 55.8 509.1 56.2 508.9L65.9 504.5C66.4 504.3 67 504.5 67.2 505 67.4 505.5 67.2 506.1 66.7 506.3 66.7 506.3 66.7 506.3 66.7 506.3L57 510.7C56.9 510.7 56.7 510.8 56.6 510.8Z" stroke="#FFFFFF" fill="#FFFFFF"/><path d="M83 498.7 84.7 497C81.3 493.7 81.3 488.3 84.6 484.9 87.9 481.5 93.3 481.5 96.7 484.8 96.7 484.8 96.8 484.9 96.8 484.9L98.5 483.2C94.2 478.9 87.2 479 82.9 483.3 78.7 487.5 78.7 494.4 83 498.7Z" stroke="#FFFFFF" fill="#FFFFFF"/><path d="M86.1 486.3C83.5 488.9 83.6 493 86.1 495.6 86.1 495.6 86.1 495.6 86.1 495.6L95.4 486.3C92.8 483.7 88.7 483.7 86.1 486.3 86.1 486.2 86.1 486.3 86.1 486.3Z" stroke="#FFFFFF" fill="#FFFFFF"/><path d="M103.7 496.9C100.3 493.6 100.3 488.2 103.6 484.8 106.9 481.4 112.3 481.4 115.7 484.7 115.7 484.7 115.8 484.8 115.8 484.8L117.5 483.1C113.2 478.8 106.2 478.9 101.9 483.2 97.7 487.5 97.7 494.4 101.9 498.7L103.7 496.9Z" stroke="#FFFFFF" fill="#FFFFFF"/><path d="M105.1 486.3C102.5 488.9 102.6 493 105.1 495.6 105.1 495.6 105.1 495.6 105.1 495.6L114.4 486.3C111.8 483.7 107.7 483.7 105.1 486.3 105.1 486.2 105.1 486.3 105.1 486.3Z" stroke="#FFFFFF" fill="#FFFFFF"/></g></svg>