<svg width="96" height="96" xmlns="http://www.w3.org/2000/svg" xmlns:xlink="http://www.w3.org/1999/xlink" xml:space="preserve" overflow="hidden"><g transform="translate(-311 -453)"><path d="M375.4 463.5C372.3 460.4 367.2 460.4 364.1 463.5L321.5 506.1C318.4 509.2 318.4 514.3 321.5 517.4L323.8 519.7 377.8 465.7 375.4 463.5Z" stroke="#FFFFFF" fill="#FFFFFF"/><path d="M396.5 484.6 394.2 482.3 340.2 536.3 342.5 538.6C345.6 541.7 350.7 541.7 353.8 538.6L396.5 495.9C399.7 492.7 399.7 487.7 396.5 484.6Z" stroke="#FFFFFF" fill="#FFFFFF"/><path d="M390.8 469.2C387.8 466.2 382.9 466.2 379.9 469.2L327.2 521.9C324.2 524.9 324.2 529.8 327.2 532.8 328.7 534.3 330.7 535.1 332.7 535.1 334.7 535.1 336.6 534.3 338.2 532.8L390.9 480.1C393.8 477.1 393.8 472.2 390.8 469.2ZM376.4 485.7C374.7 485.7 372.7 487.7 372.7 489.4 372.7 493.3 368.9 497.1 365 497.1 363.3 497.1 361.3 499.1 361.3 500.8 361.3 504.7 357.5 508.5 353.6 508.5 351.9 508.5 349.9 510.5 349.9 512.2 349.9 516.1 346.1 519.9 342.2 519.9 340.5 519.9 338.5 521.9 338.5 523.6 338.5 524.7 337.6 525.6 336.5 525.6 335.4 525.6 334.5 524.7 334.5 523.6 334.5 519.7 338.3 515.9 342.2 515.9 343.9 515.9 345.9 513.9 345.9 512.2 345.9 508.3 349.7 504.5 353.6 504.5 355.3 504.5 357.3 502.5 357.3 500.8 357.3 496.9 361.1 493.1 365 493.1 366.7 493.1 368.7 491.1 368.7 489.4 368.7 485.5 372.5 481.7 376.4 481.7 378.1 481.7 380.1 479.7 380.1 478 380.1 476.9 381 476 382.1 476 383.2 476 384.1 476.9 384.1 478 384.1 481.8 380.3 485.7 376.4 485.7Z" stroke="#FFFFFF" fill="#FFFFFF"/></g></svg>