<svg width="96" height="96" xmlns="http://www.w3.org/2000/svg" xmlns:xlink="http://www.w3.org/1999/xlink" xml:space="preserve" overflow="hidden"><g transform="translate(-231 -447)"><path d="M281.3 509.2 248.5 509.2C246.6 509.2 245 510.8 245 512.7 245 514.6 246.6 516.2 248.5 516.2L264.7 516.2 269.7 520.9 274.8 516.2 281.3 516.2C283.2 516.2 284.8 514.6 284.8 512.7 284.8 510.8 283.2 509.2 281.3 509.2Z" stroke="#FFFFFF" fill="#FFFFFF"/><path d="M269.5 526.3 262.6 519.9 244.8 519.9 244.8 524.6C244.8 527.2 246.9 529.3 249.5 529.3L280 529.3C282.6 529.3 284.7 527.2 284.7 524.6L284.7 519.9 276.5 519.9 269.5 526.3Z" stroke="#FFFFFF" fill="#FFFFFF"/><path d="M264.7 490C253.7 490 244.8 494.2 244.8 505.2L284.6 505.2C284.6 494.3 275.7 490 264.7 490Z" stroke="#FFFFFF" fill="#FFFFFF"/><path d="M312.6 464.2C313.4 463.4 313.4 462.2 312.6 461.4 311.8 460.6 310.6 460.6 309.8 461.4L299.8 471.7 299.4 475.4 271.8 475.4 271.8 478.4 272.5 486.9C282.8 489 288.7 495.6 288.7 505.4L288.7 524.7C288.7 526.4 288.2 528 287.3 529.4L303.9 529.4 307.9 478.4 307.9 475.4 303.7 475.4 303.9 473.4 312.6 464.2Z" stroke="#FFFFFF" fill="#FFFFFF"/></g></svg>