<svg width="96" height="96" xmlns="http://www.w3.org/2000/svg" xmlns:xlink="http://www.w3.org/1999/xlink" xml:space="preserve" overflow="hidden"><defs><clipPath id="clip0"><rect x="48" y="128" width="96" height="96"/></clipPath></defs><g clip-path="url(#clip0)" transform="translate(-48 -128)"><path d="M125.3 150.5C124.9 148.6 124 146.8 122.6 145.5 121.8 142.5 120.4 139.6 118.6 137.1 118.1 136.3 117.1 136 116.2 136.4 115.3 136.8 114.8 137.7 115 138.6 114.3 137.8 113.8 137.2 113.4 136.8 112.6 136 111.3 136 110.6 136.8 109.8 137.6 109.8 138.9 110.6 139.6L111 139.9C110 139.3 108.9 138.8 107.8 138.3 106.8 137.9 105.6 138.4 105.2 139.4 104.8 140.4 105.3 141.6 106.3 142L107.1 142.4C106.1 142.2 105.1 142.2 104 142.2 102.9 142.2 102 143.1 102 144.2 102 145.3 102.9 146.2 104 146.2 105.4 146.2 106.8 146.4 108.2 146.7 106.4 149.2 106 152.3 106.9 155.2L106.9 162.7C106.9 163.2 106.9 163.7 106.8 164.2L108.9 166.3 111.2 164C111.6 163.6 112.2 163.6 112.6 164L114.9 166.3 116.9 164.3 116.9 161.7C117.5 161.6 118.1 161.5 118.6 161.3L118.9 161.3 118.9 163.3C118.9 164.4 119.8 165.3 120.9 165.3 122 165.3 122.9 164.4 122.9 163.3L122.9 158.7C123.6 158 124.1 157.2 124.5 156.3L131 156.3C129.5 154 127.6 152 125.3 150.5Z" stroke="#FFFFFF" fill="#FFFFFF"/><path d="M114.3 168.5 112 166.2 109.7 168.5C109.3 168.9 108.7 168.9 108.3 168.5L106.3 166.5C104.8 170.8 100.8 173.3 96 173.3 93.6 173.3 91.5 171.7 90.8 169.4 90.1 167.1 91 164.6 93 163.3L93.6 162.9C98.9 159 100.4 151.7 97 146.1 91.3 134.8 70.7 139 63 150.2 61.9 151.8 61 153.6 60.3 155.5 60.2 155.8 60.3 156.2 60.5 156.4 60.7 156.6 61.1 156.7 61.4 156.5 64.7 154.5 68.4 153.3 72.3 153.1 66.2 156.2 61.8 161.7 60 168.3 59.5 170.2 59.2 172.2 59.1 174.2 59.1 174.5 59.3 174.9 59.6 175 59.9 175.1 60.3 175 60.5 174.8 63.1 171.7 66.5 169.3 70.3 167.8 65.2 173.8 63.4 181.9 65.3 189.5 65.4 189.8 65.7 190.1 66 190.1 66.3 190.1 66.7 190 66.8 189.6 67.9 187.4 69.2 185.3 70.8 183.3 70.8 187.2 76.2 194.3 77.8 196.3L77.9 196.2C80.7 199.3 84.8 201.5 90.8 201.8L90.8 207.7C89.7 207.7 88.8 208.6 88.8 209.7 88.8 210.8 89.7 211.7 90.8 211.7L92 211.7 95.4 215.1C95.8 215.5 96.3 215.7 96.8 215.7 97.3 215.7 97.8 215.5 98.2 215.1 98.6 214.7 98.8 214.2 98.8 213.7 98.8 213.2 98.6 212.7 98.2 212.3L97.6 211.7 100 211.7C101.1 211.7 102 210.8 102 209.7 102 208.6 101.1 207.7 100 207.7L95 207.7 95 201.7C95.4 201.7 95.8 201.6 96.2 201.6 97.1 201.5 98 201.4 99 201.2L99 203.7C97.9 203.7 97 204.6 97 205.7L100 205.7C101.3 205.7 102.6 206.4 103.3 207.5 104 208.6 104.2 210 103.7 211.2 104.1 211.5 104.5 211.7 105 211.7 105.5 211.7 106 211.5 106.4 211.1 106.8 210.7 107 210.2 107 209.7 107 209.2 106.8 208.7 106.4 208.3L105.8 207.7 108 207.7C109.1 207.7 110 206.8 110 205.7 110 204.6 109.1 203.7 108 203.7L103 203.7 103 199.7C111.5 195.8 117 187.3 117 177.9L117 167.2 115.7 168.5C115.3 168.8 114.7 168.8 114.3 168.5Z" stroke="#FFFFFF" fill="#FFFFFF"/></g></svg>