<svg width="96" height="96" xmlns="http://www.w3.org/2000/svg" xmlns:xlink="http://www.w3.org/1999/xlink" xml:space="preserve" overflow="hidden"><defs><clipPath id="clip0"><rect x="365" y="33" width="96" height="96"/></clipPath></defs><g clip-path="url(#clip0)" transform="translate(-365 -33)"><path d="M398.6 55.5C398.1 54.6 397.1 54 396 54L379 54C377.3 54 376 55.3 376 57 376 58.7 377.3 60 379 60L394.3 60 399.9 69.7 395.3 69.7 384.6 80.6 383.3 82.1 383.2 82.6C382.4 85.5 382.1 88.4 382.1 91.4 382.1 103.8 388.9 115.4 399.4 120.9L399.8 121.1 426.2 121.1 426.6 120.9C437.2 115.3 444 103.7 444 91.3 444 88.4 443.6 85.4 442.9 82.6L442.8 82.2 441.6 80.8 430.8 69.8 427.5 69.8 432.6 58.9 437.2 61.1 437.3 61.9C437.4 62.7 438 63.3 438.8 63.3 438.8 63.3 438.9 63.3 438.9 63.3 439.5 63.3 440 62.9 440.2 62.3L446.9 64.6 447.6 65.9C448 66.6 448.9 66.9 449.6 66.5 450.3 66.1 450.6 65.2 450.2 64.5L439.2 44.5 440.1 42.5C440.5 41.7 440.1 40.9 439.4 40.5 438.7 40.1 437.8 40.5 437.4 41.2L437.4 41.2 436.4 43.3 414.4 47.7C413.6 47.9 413.1 48.7 413.2 49.5 413.3 50.3 414.2 50.8 415 50.7L415 50.7 416.4 50.4 422.5 54.1C422.1 54.8 422.4 55.7 423.1 56.1 423.6 56.4 424.2 56.3 424.7 56L425.4 55.5 429.8 57.6 424.1 69.8 406.7 69.8 398.6 55.5ZM387.8 83.1 396.9 73.8 429.1 73.8 438.4 83.3C434.7 85.4 430 85.4 426.4 83.2L426.4 83.2 423.4 79.9 423.4 84.2C419.8 89.5 412.5 91 407 87.4 405.7 86.5 404.5 85.4 403.6 84L403.6 79.7 400.6 83C396.9 85.4 391.6 85.4 387.8 83.1Z" stroke="#FFFFFF" fill="#FFFFFF"/></g></svg>