<svg width="96" height="96" xmlns="http://www.w3.org/2000/svg" xmlns:xlink="http://www.w3.org/1999/xlink" xml:space="preserve" overflow="hidden"><g transform="translate(-232 -568)"><path d="M302 642 292 642 292 604 302 604 302 642ZM284 640C284 641.1 283.1 642 282 642 280.9 642 280 641.1 280 640L280 606C280 604.9 280.9 604 282 604 283.1 604 284 604.9 284 606L284 640ZM274 640C274 641.1 273.1 642 272 642 270.9 642 270 641.1 270 640L270 606C270 604.9 270.9 604 272 604 273.1 604 274 604.9 274 606L274 640ZM264 640C264 641.1 263.1 642 262 642 260.9 642 260 641.1 260 640L260 606C260 604.9 260.9 604 262 604 263.1 604 264 604.9 264 606L264 640ZM304 598 292 598 292 594 252 594 252 652C252 654.2 253.8 656 256 656L288 656C290.2 656 292 654.2 292 652L292 648 304 648C306.2 648 308 646.2 308 644L308 602C308 599.8 306.2 598 304 598Z" stroke="#FFFFFF" fill="#FFFFFF"/><path d="M285 583C283.2 583 281.6 583.7 280.4 584.8 278.9 583.7 277 583 275 583 275 583 275 583 274.9 583 274.4 579.1 271 576 267 576 263 576 259.6 579.1 259.1 583 259.1 583 259.1 583 259 583 255.1 583 252 586.1 252 590L292 590C292 586.1 288.9 583 285 583Z" stroke="#FFFFFF" fill="#FFFFFF"/></g></svg>