<svg width="96" height="96" xmlns="http://www.w3.org/2000/svg" xmlns:xlink="http://www.w3.org/1999/xlink" xml:space="preserve" overflow="hidden"><g transform="translate(-514 -32)"><path d="M579.6 65.2C580.5 63 581 60.6 581 58 581 47.5 572.5 39 562 39 551.5 39 543 47.5 543 58 543 60.5 543.5 62.9 544.4 65.2 540.7 65.9 538 69.2 538 73 538 77.4 541.6 81 546 81 549.7 81 552.8 78.4 553.7 75L554.2 75C555.1 78.4 558.2 81 561.9 81 565.6 81 568.7 78.4 569.6 75L570.1 75C571 78.4 574.1 81 577.8 81 582.2 81 585.8 77.4 585.8 73 586 69.1 583.2 65.9 579.6 65.2Z" stroke="#FFFFFF" fill="#FFFFFF"/><path d="M562 85C558.9 85 556.1 83.8 554 81.9 552.1 83.6 549.7 84.7 547.1 84.9L554.2 102.2 554.9 103.8 562 121 575.9 87.3 576.9 84.9C574.3 84.7 571.9 83.5 570 81.9 567.9 83.8 565.1 85 562 85ZM563.5 107C562.6 107.1 561.7 107.3 560.7 107.4L559.1 103.5C561.4 103.3 563.4 102.9 565.3 102.6L563.5 107ZM568.9 93.9C565.5 94.7 561.2 95.5 556 95.8L554.4 91.9C561.7 91.5 567.3 90.3 570.9 89.3L568.9 93.9Z" stroke="#FFFFFF" fill="#FFFFFF"/></g></svg>