<svg width="96" height="96" xmlns="http://www.w3.org/2000/svg" xmlns:xlink="http://www.w3.org/1999/xlink" xml:space="preserve" overflow="hidden"><defs><clipPath id="clip0"><rect x="144" y="128" width="96" height="96"/></clipPath></defs><g clip-path="url(#clip0)" transform="translate(-144 -128)"><path d="M219.4 178.6C219 178.2 218.5 178 218 178L213.1 178 212.7 174.1 221.5 165.3C226.4 163.5 230 157.8 230 151 230 142.7 224.6 136 218 136L218 158 206.5 146.5C206.2 147.9 206 149.4 206 151 206 158.2 210.1 164.2 215.5 165.7L211.2 170C210.1 168.4 208.4 167.2 206.4 166.8L200.1 165.4C201.2 164.7 202 163.5 202 162 202 159.8 200.2 158 198 158 195.8 158 194 159.8 194 162 194 162.8 194.2 163.5 194.6 164.1L194.4 164.1C194.1 164 193.9 164 193.6 164L192 164 190.4 164C190.1 164 189.8 164 189.5 164.1L189.3 164.1C189.7 163.5 189.9 162.7 189.9 162 189.9 159.8 188.1 158 185.9 158 183.7 158 181.9 159.8 181.9 162 181.9 163.4 182.6 164.7 183.8 165.4L177.5 166.8C175.5 167.2 173.8 168.4 172.7 170L168.4 165.7C173.9 164.2 178 158.2 178 151 178 149.4 177.8 147.9 177.5 146.5L166 158 166 136C159.4 136 154 142.7 154 151 154 157.8 157.6 163.5 162.5 165.4L171.3 174.2 170.9 178 166 178C165.5 178 165 178.2 164.6 178.6L158.6 184.6C157.8 185.4 157.8 186.6 158.6 187.4 159 187.8 159.5 188 160 188 160.5 188 161 187.8 161.4 187.4L166.8 182 170.4 182 169.8 187 168 187C167.5 187 167 187.2 166.6 187.6L160.6 193.6C159.8 194.4 159.8 195.6 160.6 196.4 161 196.8 161.5 197 162 197 162.5 197 163 196.8 163.4 196.4L168.8 191 169.6 191C169.8 192.7 170.7 194.2 172 195.2L166.6 200.6C166.2 201 166 201.5 166 202L166 210C166 211.1 166.9 212 168 212 169.1 212 170 211.1 170 210L170 202.8 176.1 196.7 181.2 197.9 178.5 200.6C178.2 201 178 201.5 178 202L178 214C178 215.1 178.9 216 180 216 181.1 216 182 215.1 182 214L182 202.8 185.8 199 189.5 199.9C189.8 200 190.1 200 190.4 200L192 200 193.5 200C193.8 200 194.1 200 194.4 199.9L198.1 199 201.9 202.8 201.9 214C201.9 215.1 202.8 216 203.9 216 205 216 205.9 215.1 205.9 214L205.9 202C205.9 201.5 205.7 201 205.3 200.6L202.6 197.9 207.7 196.7 213.8 202.8 213.8 210C213.8 211.1 214.7 212 215.8 212 216.9 212 217.8 211.1 217.8 210L217.8 202C217.8 201.5 217.6 201 217.2 200.6L212 195.2C213.3 194.2 214.2 192.7 214.4 191L215.2 191 220.6 196.4C221 196.8 221.5 197 222 197 222.5 197 223 196.8 223.4 196.4 224.2 195.6 224.2 194.4 223.4 193.6L217.4 187.6C217 187.2 216.5 187 216 187L214.1 187 213.5 182 217.1 182 222.5 187.4C223 187.8 223.5 188 224 188 224.5 188 225 187.8 225.4 187.4 226.2 186.6 226.2 185.4 225.4 184.6L219.4 178.6Z" stroke="#FFFFFF" fill="#FFFFFF"/></g></svg>