<svg width="96" height="96" xmlns="http://www.w3.org/2000/svg" xmlns:xlink="http://www.w3.org/1999/xlink" xml:space="preserve" overflow="hidden"><defs><clipPath id="clip0"><rect x="494" y="133" width="96" height="96"/></clipPath></defs><g clip-path="url(#clip0)" transform="translate(-494 -133)"><path d="M571 179C569.9 179 569 178.1 569 177 569 175.9 569.9 175 571 175 572.1 175 573 175.9 573 177 573 178.1 572.1 179 571 179ZM554 167C551.6 167 549 167.2 546.4 167.6L532 160C532 160 532.1 165.8 534.2 170.2 525.6 172.4 517.5 175 512 175L498 167C498 172.5 501 181 501 181 501 181 498 189.5 498 195L512 187C517.5 187 525.6 189.6 534.2 191.8 532.1 196.2 532 202 532 202L546.4 194.4C549 194.8 551.6 195 554 195 566.7 195 586 185.5 586 181 586 176.5 566.7 167 554 167Z" stroke="#FFFFFF" fill="#FFFFFF"/></g></svg>