<svg width="96" height="96" xmlns="http://www.w3.org/2000/svg" xmlns:xlink="http://www.w3.org/1999/xlink" xml:space="preserve" overflow="hidden"><defs><clipPath id="clip0"><rect x="41" y="22" width="96" height="96"/></clipPath></defs><g clip-path="url(#clip0)" transform="translate(-41 -22)"><path d="M68.364 58.072C66.7465 58.4309 65.7261 60.033 66.085 61.6506 66.384 62.9986 67.5646 63.9683 68.945 64L73.945 115.005 103.387 115.005 108.387 64.005C110.043 63.9604 111.35 62.5815 111.305 60.9253 111.268 59.5541 110.306 58.3826 108.968 58.08L108.668 58.01C108.657 48.6831 102.207 40.5994 93.115 38.518L93.478 34.318 105.49 30.886C107.083 30.4309 108.006 28.7703 107.551 27.177 107.096 25.5837 105.435 24.6609 103.842 25.116L89.842 29.116C88.6453 29.4578 87.7839 30.503 87.677 31.743L87.131 38.079C76.7221 38.8865 68.6827 47.5598 68.666 58ZM102.666 58 91.436 58 92.594 44.571C98.5569 46.3199 102.657 51.786 102.666 58ZM100.887 79 89.626 79 90.919 64 102.357 64ZM74.975 64 84.9 64 83.6 79 76.445 79ZM86.605 44.17 85.413 58 74.666 58C74.6789 51.0722 79.7533 45.1941 86.605 44.17Z" stroke="#FFFFFF" fill="#FFFFFF"/></g></svg>