<svg width="96" height="96" xmlns="http://www.w3.org/2000/svg" xmlns:xlink="http://www.w3.org/1999/xlink" xml:space="preserve" overflow="hidden"><defs><clipPath id="clip0"><rect x="210" y="22" width="96" height="96"/></clipPath></defs><g clip-path="url(#clip0)" transform="translate(-210 -22)"><path d="M249.1 47.7C248.3 48.5 248.3 49.7 249.1 50.5 249.5 50.9 250 51.1 250.5 51.1 251 51.1 251.5 50.9 251.9 50.5 254.6 47.8 254.6 43.3 251.9 40.6 250.7 39.4 250.7 37.5 251.9 36.4 252.7 35.6 252.7 34.4 251.9 33.6 251.1 32.8 249.9 32.8 249.1 33.6 246.4 36.3 246.4 40.8 249.1 43.5 250.2 44.7 250.2 46.6 249.1 47.7Z" stroke="#FFFFFF" fill="#FFFFFF"/><path d="M260 53.6C259.2 54.4 259.2 55.6 260 56.4 260.4 56.8 260.9 57 261.4 57 261.9 57 262.4 56.8 262.8 56.4 265.5 53.7 265.5 49.2 262.8 46.5 261.6 45.3 261.6 43.4 262.8 42.3 263.6 41.5 263.6 40.3 262.8 39.5 262 38.7 260.8 38.7 260 39.5 257.3 42.2 257.3 46.7 260 49.4 261.2 50.5 261.2 52.4 260 53.6Z" stroke="#FFFFFF" fill="#FFFFFF"/><path d="M239.1 53.6C238.3 54.4 238.3 55.6 239.1 56.4 239.5 56.8 240 57 240.5 57 241 57 241.5 56.8 241.9 56.4 244.6 53.7 244.6 49.2 241.9 46.5 240.7 45.3 240.7 43.4 241.9 42.3 242.7 41.5 242.7 40.3 241.9 39.5 241.1 38.7 239.9 38.7 239.1 39.5 236.4 42.2 236.4 46.7 239.1 49.4 240.2 50.5 240.2 52.4 239.1 53.6Z" stroke="#FFFFFF" fill="#FFFFFF"/><path d="M263.4 107C265.6 104.7 267.5 101.9 269.1 98.6 270.7 99.2 272.4 99.5 274.3 99.5 282.7 99.5 289.5 92.7 289.5 84.3 289.4 76.1 283 69.4 275 69L275 63 227 63 227 71C227 86.3 231.6 99.7 238.6 107L263.4 107ZM274.9 75.1C279.7 75.4 283.5 79.4 283.5 84.3 283.4 89.4 279.3 93.5 274.2 93.5 273.2 93.5 272.3 93.3 271.4 93.1 273.3 87.8 274.5 81.6 274.9 75.1ZM237 72 242 67 247 67 252 72 252 87 237 87 237 72Z" stroke="#FFFFFF" fill="#FFFFFF"/></g></svg>