<svg width="96" height="96" xmlns="http://www.w3.org/2000/svg" xmlns:xlink="http://www.w3.org/1999/xlink" xml:space="preserve" overflow="hidden"><defs><clipPath id="clip0"><rect x="126" y="22" width="96" height="96"/></clipPath></defs><g clip-path="url(#clip0)" transform="translate(-126 -22)"><path d="M196 51 178.638 51 180.793 28.37C180.897 27.2711 180.092 26.2954 178.993 26.19L175.011 25.81C173.912 25.705 172.935 26.5108 172.83 27.61L170.6 51 152 51 151.4 51.061C149.78 51.4091 148.749 53.0045 149.097 54.6244 149.386 55.9664 150.548 56.9415 151.92 56.992L156.92 114 191.081 114 196.081 56.992C197.737 56.9311 199.03 55.5394 198.969 53.8837 198.918 52.5119 197.943 51.3494 196.601 51.061ZM157.941 57 170.029 57 168.886 69 158.994 69ZM165 108C163.343 108 162 106.657 162 105 162 103.343 163.343 102 165 102 166.657 102 168 103.343 168 105 168 106.657 166.657 108 165 108ZM166.5 97C166.5 95.3431 167.843 94 169.5 94 171.157 94 172.5 95.3431 172.5 97 172.5 98.6569 171.157 100 169.5 100 167.843 100 166.5 98.6569 166.5 97ZM174 108C172.343 108 171 106.657 171 105 171 103.343 172.343 102 174 102 175.657 102 177 103.343 177 105 177 106.657 175.657 108 174 108ZM175.5 97C175.5 95.3431 176.843 94 178.5 94 180.157 94 181.5 95.3431 181.5 97 181.5 98.6569 180.157 100 178.5 100 176.843 100 175.5 98.6569 175.5 97ZM183 108C181.343 108 180 106.657 180 105 180 103.343 181.343 102 183 102 184.657 102 186 103.343 186 105 186 106.657 184.657 108 183 108ZM189.006 69 176.923 69 178.066 57 190.059 57Z" stroke="#FFFFFF" fill="#FFFFFF"/></g></svg>