<svg width="96" height="96" xmlns="http://www.w3.org/2000/svg" xmlns:xlink="http://www.w3.org/1999/xlink" xml:space="preserve" overflow="hidden"><g transform="translate(-29 -553)"><path d="M113.527 564.476C107.075 558.025 97.719 564.927 85.699 576.621 89.9311 575.157 94.2493 573.955 98.629 573.021 99.7095 572.791 100.772 573.48 101.003 574.56 101.233 575.641 100.544 576.704 99.463 576.934 92.2411 578.465 85.2064 580.774 78.482 583.82 75.534 586.81 72.454 589.958 69.241 593.171 68.5023 593.91 67.769 594.641 67.041 595.365 71.7232 593.672 76.5161 592.302 81.386 591.265 82.4647 591.028 83.5317 591.71 83.7692 592.788 84.0066 593.867 83.3246 594.934 82.2459 595.172 82.2373 595.173 82.2286 595.175 82.22 595.177 74.3105 596.849 66.6293 599.46 59.34 602.956 55.54 606.707 52.012 610.241 48.969 613.546 53.596 611.883 58.3306 610.535 63.14 609.512 64.2218 609.289 65.2797 609.985 65.5028 611.067 65.7239 612.138 65.0427 613.189 63.974 613.424 56.889 614.926 49.9836 617.177 43.374 620.138 37.986 627.231 36.114 633.031 40.543 637.46 49.692 646.61 64.675 628.916 84.829 608.76 104.983 588.604 122.676 573.625 113.527 564.476Z" stroke="#FFFFFF" fill="#FFFFFF"/></g></svg>