<svg width="96" height="96" xmlns="http://www.w3.org/2000/svg" xmlns:xlink="http://www.w3.org/1999/xlink" xml:space="preserve" overflow="hidden"><g transform="translate(-435 -29)"><path d="M503 82.8C500.5 85.4 496.9 87 493 87 489.1 87 485.5 85.4 483 82.8 480.5 85.4 476.9 87 473 87 469.1 87 465.5 85.4 463 82.8 460.5 85.4 456.9 87 453 87 452.4 87 451.8 86.9 451.1 86.9L459 112 507 112 514.9 86.9C514.2 86.9 513.6 87 513 87 509.1 87 505.5 85.4 503 82.8Z" stroke="#FFFFFF" fill="#FFFFFF"/><path d="M503.4 62.5 499.2 66.5C498.4 67.3 497.1 67.2 496.4 66.4 496 66 495.9 65.5 495.9 65 495.9 64.5 496.1 63.9 496.5 63.5L500.7 59.5C501.5 58.7 502.8 58.8 503.5 59.6 504.2 60.4 504.2 61.7 503.4 62.5ZM489.4 53.7C489 54.1 488.5 54.2 488 54.2 487.5 54.2 486.9 54 486.5 53.6L482.5 49.4C481.7 48.6 481.8 47.3 482.6 46.6 483.4 45.8 484.7 45.9 485.4 46.7L489.4 50.9C490.2 51.7 490.2 52.9 489.4 53.7ZM478.4 69.5C477.6 70.3 476.3 70.2 475.6 69.4L471.6 65.2C470.8 64.4 470.9 63.1 471.7 62.4 472.1 62 472.6 61.9 473.1 61.9 473.6 61.9 474.2 62.1 474.6 62.5L478.6 66.7C479.2 67.4 479.2 68.7 478.4 69.5ZM467.6 55.5 463.4 59.5C462.6 60.3 461.3 60.2 460.6 59.4 459.8 58.6 459.9 57.3 460.7 56.6L464.9 52.6C465.7 51.8 467 51.9 467.7 52.7 468.1 53.1 468.2 53.6 468.2 54.1 468.2 54.5 468 55.1 467.6 55.5ZM515.5 63.3C511.3 49.8 498.3 40 483 40 467.7 40 454.7 49.8 450.5 63.3 446.2 64.4 443 68.3 443 73 443 78.5 447.5 83 453 83 458.5 83 463 78.5 463 73 463 78.5 467.5 83 473 83 478.5 83 483 78.5 483 73 483 78.5 487.5 83 493 83 498.5 83 503 78.5 503 73 503 78.5 507.5 83 513 83 518.5 83 523 78.5 523 73 523 68.3 519.8 64.4 515.5 63.3Z" stroke="#FFFFFF" fill="#FFFFFF"/></g></svg>