<svg width="96" height="96" xmlns="http://www.w3.org/2000/svg" xmlns:xlink="http://www.w3.org/1999/xlink" xml:space="preserve" overflow="hidden"><defs><clipPath id="clip0"><rect x="366" y="128" width="96" height="96"/></clipPath></defs><g clip-path="url(#clip0)" transform="translate(-366 -128)"><path d="M447.153 182.09C447.145 181.288 446.497 180.639 445.695 180.629L442.095 180.129C440.51 177.508 438.085 175.499 435.215 174.429 437.22 176.68 438.66 179.377 439.415 182.296 438.185 182.611 436.887 182.908 435.515 183.182 433.758 176.606 427.812 172.024 421.006 172 418.306 172.001 415.656 172.737 413.342 174.129 414.588 174.907 415.747 175.816 416.8 176.841 418.133 176.285 419.562 176 421.006 176 425.872 176.021 430.152 179.221 431.547 183.883 430.248 184.083 428.904 184.268 427.514 184.439 426.268 181.258 422.905 179.445 419.563 180.151 420.381 181.377 421.064 182.687 421.6 184.06 422.179 184.18 422.709 184.469 423.123 184.891 421.386 185.042 419.596 185.163 417.763 185.255 416.408 181.982 414.04 179.229 411.006 177.4L411.006 149.02 407.006 150.564 407.006 185.441C405.653 185.42 404.32 185.383 403.006 185.33L403.006 152.108 399.006 153.653 399.006 176.894C393.14 173.479 385.666 174.785 381.306 179.988 378.613 179.858 375.914 180.087 373.281 180.667 372.617 180.77 372.109 181.313 372.05 181.982 372.615 185.28 373.51 188.513 374.723 191.632 375.788 194.393 377.064 197.067 378.54 199.632 383.176 207.669 389.486 214.615 397.042 220L422.173 220C432.8 212.609 444.234 198.752 447.115 182.333L447.115 182.333C447.115 182.308 447.123 182.284 447.131 182.257 447.137 182.2 447.148 182.146 447.153 182.09ZM399.006 185.117C398.126 185.059 397.257 184.994 396.399 184.923 394.387 182.746 391.084 182.37 388.634 184.038 386.967 183.793 385.37 183.522 383.857 183.225 387.013 178.734 393.212 177.651 397.703 180.807 398.168 181.133 398.604 181.499 399.006 181.9ZM411.006 185.452 411.006 182.366C411.956 183.253 412.764 184.281 413.4 185.414 412.607 185.432 411.809 185.445 411.006 185.452Z" stroke="#FFFFFF" fill="#FFFFFF"/><path d="M383.043 161.984 394.758 160.473 394.758 155.293 389.19 157.549 389.416 158.121 382.583 159.492C382.042 159.601 381.691 160.128 381.799 160.669 381.803 160.688 381.807 160.706 381.812 160.724L381.947 161.243C382.073 161.731 382.543 162.048 383.043 161.984Z" stroke="#FFFFFF" fill="#FFFFFF"/><path d="M453.938 145.531 423.138 152.994 423.138 156.328 455.161 151.538C455.707 151.456 456.084 150.947 456.002 150.401 455.999 150.383 455.996 150.364 455.992 150.346L455.153 146.3C455.041 145.759 454.512 145.412 453.971 145.524 453.96 145.526 453.949 145.528 453.938 145.531Z" stroke="#FFFFFF" fill="#FFFFFF"/><path d="M452.623 132.377 423.14 144.393 423.14 148.854 454.962 138.265C455.486 138.09 455.769 137.524 455.595 137 455.588 136.979 455.58 136.957 455.571 136.936L453.925 132.923C453.716 132.413 453.133 132.169 452.623 132.377Z" stroke="#FFFFFF" fill="#FFFFFF"/><path d="M417.006 165C418.111 165 419.006 164.105 419.006 163L419.006 145.931 415.006 147.475 415.006 163C415.006 164.105 415.901 165 417.006 165Z" stroke="#FFFFFF" fill="#FFFFFF"/></g></svg>