<svg width="96" height="96" xmlns="http://www.w3.org/2000/svg" xmlns:xlink="http://www.w3.org/1999/xlink" xml:space="preserve" overflow="hidden"><g transform="translate(-328 -566)"><path d="M414 601.4C414 601.4 414 601.4 414 601.4 414 601.4 414 601.4 414 601.4 410.6 591.2 403.5 583 393.9 578.2 384.4 573.4 373.5 572.7 363.4 576L363.4 576C353.3 579.4 345 586.5 340.3 596 335.4 605.6 334.7 616.5 338 626.6 341.2 636.3 348.4 644.7 357.6 649.5 363.3 652.5 369.6 654 375.9 654 380.2 654 384.4 653.3 388.6 651.9 403.6 646.9 414 633.9 415.7 618.5 416.4 612.9 415.8 607 414 601.4ZM397.6 605.8 401.8 601.6C402.6 600.8 403.8 600.8 404.6 601.6 405.4 602.4 405.4 603.6 404.6 604.4L400.4 608.6C400 609 399.5 609.2 399 609.2 398.5 609.2 398 609 397.6 608.6 396.8 607.9 396.8 606.6 397.6 605.8ZM384.6 585.5C385.4 584.7 386.7 584.8 387.4 585.6L391.4 589.8C392.2 590.6 392.1 591.9 391.3 592.6 390.9 593 390.4 593.1 389.9 593.1 389.4 593.1 388.8 592.9 388.4 592.5L384.4 588.3C383.8 587.6 383.8 586.3 384.6 585.5ZM376 602.8C377.7 602.8 379.4 603.2 381 604 383.7 605.3 385.7 607.6 386.6 610.5 387.5 613.4 387.3 616.4 386 619.1 384.7 621.8 382.4 623.8 379.5 624.7 373.6 626.7 367.3 623.5 365.3 617.6 364.4 614.8 364.6 611.7 365.9 609 367.2 606.3 369.5 604.3 372.4 603.4 373.6 603 374.8 602.8 376 602.8ZM361.6 589.8 365.8 585.6C366.6 584.8 367.8 584.8 368.6 585.6 369.4 586.4 369.4 587.6 368.6 588.4L364.4 592.6C364 593 363.5 593.2 363 593.2 362.5 593.2 362 593 361.6 592.6 360.8 591.9 360.8 590.6 361.6 589.8ZM347.6 604.4C346.8 603.6 346.8 602.4 347.6 601.6 348.4 600.8 349.6 600.8 350.4 601.6L354.6 605.8C355.4 606.6 355.4 607.8 354.6 608.6 354.2 609 353.7 609.2 353.2 609.2 352.7 609.2 352.2 609 351.8 608.6L347.6 604.4ZM350.7 628.2C350.2 628.2 349.7 628 349.3 627.6 348.5 626.8 348.5 625.6 349.3 624.8L353.5 620.6C354.3 619.8 355.5 619.8 356.3 620.6 357.1 621.4 357.1 622.6 356.3 623.4L352.1 627.6C351.8 628 351.3 628.2 350.7 628.2ZM408.2 630.1C403.9 638.7 396.5 645.1 387.4 648.1 387.4 648.1 387.4 648.1 387.4 648.1 378 651.3 368.1 650.5 359.5 646 358.4 645.4 357.4 644.8 356.4 644.2 359.6 644.1 362.1 641.7 362.1 636.1 362 630.7 374.9 630.4 375.1 636.1 375.6 648.1 400.8 641.4 400.1 622.1 399.9 615.3 408.1 615.2 408.1 619.1 408.1 622.3 409.5 623.5 410.9 623.4 410.2 625.6 409.3 627.9 408.2 630.1Z" stroke="#FFFFFF" fill="#FFFFFF"/></g></svg>