<svg width="96" height="96" xmlns="http://www.w3.org/2000/svg" xmlns:xlink="http://www.w3.org/1999/xlink" xml:space="preserve" overflow="hidden"><g transform="translate(-372 -223)"><path d="M444 282C441.9 282 439.8 281.5 438 280.5 436.2 281.5 434.1 282 432 282 429.9 282 427.8 281.5 426 280.5 424.2 281.5 422.1 282 420 282 417.9 282 415.8 281.5 414 280.5 412.2 281.5 410.1 282 408 282 405.9 282 403.8 281.5 402 280.5 400.2 281.5 398.1 282 396 282 393.9 282 391.8 281.5 390 280.5 388.5 281.3 386.9 281.7 385.2 281.9L386.8 295 452 295 453.7 281.8C452.4 281.6 451.1 281.2 450 280.5 448.2 281.5 446.1 282 444 282Z" stroke="#FFFFFF" fill="#FFFFFF"/><path d="M462 266C461.3 266 460.7 266.2 460.3 266.6 455.1 254.1 439 247 420 247 401 247 384.9 254.1 379.7 266.6 379.3 266.2 378.7 266 378 266 376.3 266 375 267.3 375 269 375 274 379 278 384 278 386.3 278 388.4 277.1 390 275.7 391.6 277.1 393.7 278 396 278 398.3 278 400.4 277.1 402 275.7 403.6 277.1 405.7 278 408 278 410.3 278 412.4 277.1 414 275.7 415.6 277.1 417.7 278 420 278 422.3 278 424.4 277.1 426 275.7 427.6 277.1 429.7 278 432 278 434.3 278 436.4 277.1 438 275.7 439.6 277.1 441.7 278 444 278 446.3 278 448.4 277.1 450 275.7 451.6 277.1 453.7 278 456 278 461 278 465 274 465 269 465 267.3 463.7 266 462 266ZM404.6 260.1C403.6 260.9 402.1 260.9 401.1 260.1 400.1 259.3 400.1 258.1 401.1 257.3 402.1 256.5 405.3 255.1 406.3 255.9 407.3 256.7 405.6 259.3 404.6 260.1ZM420.1 261C418.7 261 417.7 260.1 417.7 259 417.7 257.9 418.8 255 420.1 255 421.5 255 422.5 257.9 422.5 259 422.5 260.1 421.4 261 420.1 261ZM438.9 260.1C437.9 260.9 436.4 260.9 435.4 260.1 434.4 259.3 432.7 256.6 433.7 255.9 434.7 255.1 437.9 256.5 438.9 257.3 439.9 258.1 439.9 259.3 438.9 260.1Z" stroke="#FFFFFF" fill="#FFFFFF"/></g></svg>