<svg width="96" height="96" xmlns="http://www.w3.org/2000/svg" xmlns:xlink="http://www.w3.org/1999/xlink" xml:space="preserve" overflow="hidden"><g transform="translate(-137 -453)"><path d="M214.47 491.89C221.253 510.58 211.6 531.229 192.91 538.011 174.221 544.794 153.571 535.141 146.789 516.451 140.006 497.762 149.659 477.113 168.349 470.33 176.976 467.199 186.474 467.482 194.9 471.12L196.45 467.42C176.159 458.685 152.629 468.053 143.894 488.344 135.159 508.636 144.527 532.166 164.818 540.901 185.109 549.636 208.639 540.268 217.374 519.976 221.414 510.591 221.71 500.016 218.2 490.42Z" stroke="#FFFFFF" fill="#FFFFFF"/><path d="M214.31 472.45 214.31 472.45 214.31 472.45C210.803 468.863 206.619 466.008 202 464.05L202 464.05 187.52 498.77 222.52 484.9 222.52 484.9C220.64 480.245 217.849 476.012 214.31 472.45ZM202.6 474.31C201.372 473.023 201.42 470.985 202.706 469.758 203.993 468.53 206.031 468.577 207.259 469.864 208.473 471.136 208.442 473.146 207.19 474.38 205.908 475.628 203.857 475.601 202.608 474.319 202.606 474.316 202.603 474.313 202.6 474.31ZM193 491.19 195.67 484.81C197.532 485.307 198.639 487.22 198.141 489.082 197.644 490.945 195.731 492.051 193.869 491.554 193.564 491.472 193.272 491.35 193 491.19ZM206.9 485.58C205.672 484.293 205.72 482.255 207.006 481.027 208.293 479.8 210.331 479.847 211.559 481.134 212.773 482.406 212.742 484.416 211.49 485.65 210.202 486.896 208.149 486.865 206.9 485.58Z" stroke="#FFFFFF" fill="#FFFFFF"/><path d="M229.33 482.88C229.549 482.359 229.549 481.771 229.33 481.25 227.171 475.868 223.958 470.973 219.88 466.85 215.835 462.728 211.021 459.439 205.71 457.17 205.186 456.95 204.594 456.95 204.07 457.17 203.553 457.373 203.143 457.783 202.94 458.3 202.503 459.385 203.014 460.621 204.09 461.08 213.779 465.225 221.441 473.027 225.41 482.79 225.514 483.055 225.671 483.297 225.87 483.5L225.87 483.5C226.468 484.104 227.367 484.296 228.16 483.99 228.681 483.789 229.102 483.39 229.33 482.88Z" stroke="#FFFFFF" fill="#FFFFFF"/><path d="M210.83 493.61 180.63 505.61 193.46 474.85 193.31 474.79C189.398 473.082 185.178 472.191 180.91 472.17L180.63 472.17C163.088 472.223 148.838 486.349 148.63 503.89 148.48 521.56 162.68 536.006 180.35 536.16L180.64 536.16C198.313 536.148 212.631 521.812 212.619 504.139 212.617 500.554 212.012 496.995 210.83 493.61ZM177.7 476C179.357 474.33 182.054 474.319 183.725 475.975 185.395 477.632 185.406 480.33 183.749 482 182.092 483.67 179.395 483.681 177.725 482.025 177.716 482.016 177.708 482.008 177.7 482 176.043 480.361 176.029 477.689 177.668 476.032 177.678 476.021 177.689 476.011 177.7 476ZM161.41 509.9C159.975 511.536 157.486 511.698 155.85 510.263 155.691 510.124 155.544 509.973 155.41 509.81 153.82 508.129 153.893 505.477 155.574 503.887 157.255 502.297 159.908 502.37 161.498 504.051 163.059 505.702 163.02 508.297 161.41 509.9ZM165.87 490.9C164.603 492.186 162.532 492.202 161.246 490.934 159.959 489.667 159.944 487.596 161.211 486.31 162.479 485.023 164.549 485.008 165.836 486.276 165.847 486.287 165.859 486.298 165.87 486.31 167.109 487.574 167.109 489.596 165.87 490.86ZM172.54 528.96C171.272 530.247 169.202 530.262 167.916 528.994 166.629 527.727 166.614 525.656 167.881 524.37 169.149 523.083 171.219 523.068 172.506 524.336 172.517 524.347 172.529 524.359 172.54 524.37 173.779 525.634 173.779 527.656 172.54 528.92ZM174.69 511.96C173.423 513.247 171.352 513.262 170.066 511.994 168.779 510.727 168.764 508.656 170.031 507.37 171.299 506.083 173.369 506.068 174.656 507.336 174.667 507.347 174.679 507.358 174.69 507.37 175.942 508.636 175.942 510.674 174.69 511.94ZM177.21 498.96C175.962 497.694 175.976 495.655 177.243 494.406 178.509 493.158 180.548 493.173 181.796 494.439 182.159 494.807 182.428 495.257 182.58 495.75L181 499.57C179.732 500.207 178.198 499.948 177.21 498.93ZM188.08 510.46C189.348 509.173 191.418 509.158 192.704 510.426 193.991 511.693 194.006 513.763 192.739 515.05 191.471 516.336 189.401 516.352 188.114 515.084 188.103 515.073 188.091 515.062 188.08 515.05 186.804 513.795 186.787 511.744 188.042 510.468 188.055 510.455 188.067 510.443 188.08 510.43ZM194.23 530.22C192.573 531.89 189.876 531.901 188.206 530.245 186.535 528.588 186.524 525.89 188.181 524.22 189.838 522.55 192.535 522.539 194.206 524.195 194.214 524.204 194.222 524.212 194.23 524.22 195.879 525.867 195.88 528.539 194.232 530.188 194.231 530.189 194.231 530.189 194.23 530.19ZM208.7 510.22C207.432 511.507 205.362 511.522 204.076 510.254 202.789 508.987 202.774 506.917 204.041 505.63 205.309 504.344 207.379 504.328 208.666 505.596 208.677 505.607 208.689 505.618 208.7 505.63 209.97 506.89 209.978 508.942 208.718 510.212 208.712 510.218 208.706 510.224 208.7 510.23Z" stroke="#FFFFFF" fill="#FFFFFF"/></g></svg>