<svg width="96" height="96" xmlns="http://www.w3.org/2000/svg" xmlns:xlink="http://www.w3.org/1999/xlink" xml:space="preserve" overflow="hidden"><g transform="translate(-122 -574)"><path d="M127 616.054C127 626.385 131.5 636.113 138.664 643.5L137.23 644.934C134.868 647.258 134.838 651.057 137.162 653.419 139.486 655.781 143.285 655.811 145.647 653.487 145.67 653.464 145.693 653.441 145.716 653.418L148.157 650.977C161.592 659.08 178.408 659.08 191.843 650.977L193.771 652.9C196.133 655.224 199.932 655.193 202.256 652.831 204.553 650.496 204.553 646.75 202.256 644.415L201.337 643.496C208.5 636.112 213 626.385 213 616.054L213 614.514C213.03 599.319 200.737 586.977 185.542 586.946 179.999 586.935 174.581 588.599 170 591.719 157.441 583.166 140.326 586.413 131.773 598.972 128.652 603.555 126.988 608.974 127 614.519ZM186.439 592.439C187.025 591.853 187.974 591.853 188.56 592.438 188.561 592.438 188.561 592.439 188.561 592.439L190.561 594.439C191.147 595.025 191.147 595.975 190.561 596.561 189.975 597.147 189.025 597.147 188.439 596.561L186.439 594.561C185.853 593.975 185.853 593.026 186.438 592.44 186.439 592.44 186.439 592.439 186.439 592.439ZM172.439 606.439C173.025 605.853 173.974 605.853 174.56 606.438 174.561 606.438 174.561 606.439 174.561 606.439L176.561 608.439C177.147 609.025 177.147 609.975 176.561 610.561 175.975 611.147 175.025 611.147 174.439 610.561L172.439 608.561C171.853 607.975 171.853 607.026 172.438 606.44 172.439 606.44 172.439 606.439 172.439 606.439ZM170.561 618.439C171.147 619.025 171.147 619.975 170.561 620.561 169.975 621.147 169.025 621.147 168.439 620.561L166.439 618.561C165.853 617.975 165.853 617.025 166.439 616.439 167.025 615.853 167.975 615.853 168.561 616.439ZM164.439 597.439 166.439 595.439C167.025 594.853 167.975 594.853 168.561 595.439 169.147 596.025 169.147 596.975 168.561 597.561L166.561 599.561C165.975 600.147 165.025 600.147 164.439 599.561 163.853 598.975 163.853 598.025 164.439 597.439ZM142.439 593.439C143.025 592.853 143.974 592.853 144.56 593.438 144.561 593.438 144.561 593.439 144.561 593.439L146.561 595.439C147.147 596.025 147.147 596.975 146.561 597.561 145.975 598.147 145.025 598.147 144.439 597.561L142.439 595.561C141.853 594.975 141.853 594.026 142.438 593.44 142.439 593.44 142.439 593.439 142.439 593.439ZM133.5 617C132.672 617 132 616.329 131.999 615.501 131.999 615.102 132.157 614.721 132.439 614.439L134.439 612.439C135.025 611.853 135.975 611.853 136.561 612.439 137.147 613.025 137.147 613.975 136.561 614.561L134.561 616.561C134.28 616.842 133.898 617 133.5 617ZM140.561 634.561C139.975 635.147 139.026 635.147 138.44 634.562 138.439 634.562 138.439 634.561 138.439 634.561L136.439 632.561C135.853 631.975 135.853 631.025 136.439 630.439 137.025 629.853 137.975 629.853 138.561 630.439L140.561 632.439C141.147 633.025 141.147 633.974 140.562 634.56 140.561 634.56 140.561 634.561 140.561 634.561ZM139 614.514C138.975 605.941 145.905 598.971 154.478 598.946 156.962 598.939 159.412 599.528 161.621 600.664 159.825 603.718 158.643 607.093 158.142 610.6 157.641 614.292 158.889 618.007 161.517 620.649L147.177 634.989C142.052 629.545 139 622.615 139 616.054ZM157.561 634.561 155.561 636.561C154.975 637.147 154.025 637.147 153.439 636.561 152.853 635.975 152.853 635.025 153.439 634.439L155.439 632.439C156.025 631.853 156.975 631.853 157.561 632.439 158.147 633.025 158.147 633.975 157.561 634.561ZM156.561 646.561 154.561 648.561C153.975 649.147 153.025 649.147 152.439 648.561 151.853 647.975 151.853 647.025 152.439 646.439L154.439 644.439C155.025 643.853 155.975 643.853 156.561 644.439 157.147 645.025 157.147 645.975 156.561 646.561ZM176.561 652.561C175.975 653.147 175.026 653.147 174.44 652.562 174.439 652.561 174.439 652.561 174.439 652.561L172.439 650.561C171.853 649.975 171.853 649.025 172.439 648.439 173.025 647.853 173.975 647.853 174.561 648.439L176.561 650.439C177.147 651.025 177.147 651.974 176.562 652.56 176.561 652.561 176.561 652.561 176.561 652.561ZM170 645.054C165.504 645.052 161.064 644.054 157 642.132L170 629.132 183 642.132C178.936 644.054 174.496 645.052 170 645.054ZM184.561 633.561C183.975 634.147 183.026 634.147 182.44 633.562 182.439 633.562 182.439 633.561 182.439 633.561L180.439 631.561C179.853 630.975 179.853 630.025 180.439 629.439 181.025 628.853 181.975 628.853 182.561 629.439L184.561 631.439C185.147 632.025 185.147 632.974 184.562 633.56 184.561 633.56 184.561 633.561 184.561 633.561ZM195.561 644.561 193.561 646.561C192.975 647.147 192.025 647.147 191.439 646.561 190.853 645.975 190.853 645.025 191.439 644.439L193.439 642.439C194.025 641.853 194.975 641.853 195.561 642.439 196.147 643.025 196.147 643.975 195.561 644.561ZM201 616.054C201 622.615 197.949 629.543 192.824 634.985L178.485 620.644C181.111 618.003 182.358 614.291 181.858 610.6 181.357 607.094 180.176 603.72 178.38 600.667 186.004 596.747 195.362 599.749 199.282 607.373 200.418 609.582 201.007 612.031 201 614.514ZM207.561 627.561C206.975 628.147 206.026 628.147 205.44 627.562 205.439 627.562 205.439 627.561 205.439 627.561L203.439 625.561C202.853 624.975 202.853 624.025 203.439 623.439 204.025 622.853 204.975 622.853 205.561 623.439L207.561 625.439C208.147 626.025 208.147 626.974 207.562 627.56 207.561 627.56 207.561 627.561 207.561 627.561ZM207.561 606.561 205.561 608.561C204.975 609.147 204.025 609.147 203.439 608.561 202.853 607.975 202.853 607.025 203.439 606.439L205.439 604.439C206.025 603.853 206.975 603.853 207.561 604.439 208.147 605.025 208.147 605.975 207.561 606.561Z" stroke="#FFFFFF" fill="#FFFFFF"/></g></svg>