<svg width="96" height="96" xmlns="http://www.w3.org/2000/svg" xmlns:xlink="http://www.w3.org/1999/xlink" xml:space="preserve" overflow="hidden"><g transform="translate(-407 -453)"><path d="M431.54 492.64C432.024 493.312 431.871 494.25 431.198 494.734 431.003 494.874 430.777 494.965 430.54 495 429.565 495.155 428.628 495.494 427.78 496 424.192 498.154 423.021 502.803 425.16 506.4 425.417 506.831 425.715 507.237 426.05 507.61L425.05 508.68 425.05 508.68C424.88 508.82 424.73 508.96 424.57 509.11L423.97 509.73 423.97 509.73C421.07 513.063 421.421 518.116 424.754 521.016 424.802 521.058 424.851 521.099 424.9 521.14 422.768 521.719 421.509 523.916 422.087 526.048 422.565 527.809 424.175 529.024 426 529 426.11 529 426.21 529 426.32 529 427.73 526.32 429.32 522.41 430.89 518.36 437.34 502.08 447.09 477.54 467 474.81 474.733 473.888 482.499 476.258 488.4 481.34L488.64 481.55C489.841 478.273 488.158 474.642 484.88 473.441 483.3 472.862 481.555 472.938 480.03 473.65 479.626 473.845 479.154 473.845 478.75 473.65 478.344 473.455 478.046 473.088 477.94 472.65 476.86 468.423 472.557 465.872 468.33 466.952 466.966 467.301 465.719 468.008 464.72 469 464.127 469.586 463.171 469.581 462.585 468.988 462.524 468.927 462.469 468.86 462.42 468.79L461.22 467C460.274 466.009 459.12 465.24 457.84 464.75 455.712 463.915 453.348 463.915 451.22 464.75 449.241 465.494 447.666 467.037 446.88 469 446.579 469.789 446.416 470.625 446.4 471.47 446.384 472.298 445.7 472.957 444.872 472.941 444.75 472.939 444.628 472.922 444.51 472.89 443.801 472.687 443.068 472.58 442.33 472.57 440.996 472.537 439.701 473.016 438.71 473.91 437.312 475.259 436.643 477.195 436.91 479.12L437.15 480.83C437.207 481.224 437.102 481.624 436.86 481.94 436.621 482.263 436.259 482.473 435.86 482.52 432.324 483.032 429.872 486.314 430.384 489.85 430.505 490.687 430.789 491.492 431.22 492.22 431.319 492.365 431.426 492.506 431.54 492.64ZM452.23 474.77 456 471.52C456.422 471.164 457.053 471.217 457.409 471.639 457.409 471.639 457.41 471.64 457.41 471.64 457.769 472.06 457.72 472.691 457.3 473.05 457.3 473.05 457.3 473.05 457.3 473.05L453.49 476.29C453.07 476.649 452.439 476.6 452.08 476.18 451.721 475.76 451.77 475.129 452.19 474.77ZM439.81 483.6 444.71 482.6C445.262 482.492 445.797 482.853 445.905 483.405 446.013 483.957 445.652 484.492 445.1 484.6L440.19 485.6 440 485.6C439.448 485.652 438.957 485.247 438.905 484.695 438.853 484.143 439.258 483.652 439.81 483.6ZM436 491.5C436 490.948 436.448 490.5 437 490.5 437.552 490.5 438 490.948 438 491.5L438 496.5C438 497.052 437.552 497.5 437 497.5 436.448 497.5 436 497.052 436 496.5ZM434 501.5C434.492 501.25 435.094 501.446 435.344 501.939 435.346 501.943 435.348 501.946 435.35 501.95 435.595 502.444 435.394 503.044 434.9 503.29L430.43 505.53C430.29 505.598 430.136 505.632 429.98 505.63 429.428 505.627 428.983 505.176 428.986 504.624 428.988 504.251 429.198 503.91 429.53 503.74Z" stroke="#FFFFFF" fill="#FFFFFF"/><path d="M488.67 484.46 487.08 482.83C481.623 478.132 474.437 475.953 467.29 476.83 448.52 479.37 439 503.26 432.75 519.06 429.38 527.56 427.15 533.17 424.37 534.25 424.128 534.336 423.876 534.39 423.62 534.41L423.37 534.41C423.102 534.406 422.836 534.362 422.58 534.28L422.13 534.18C420.617 533.721 419.403 532.587 418.84 531.11 416.89 526.47 416.48 514.9 421.13 503.19 420.864 499.224 422.841 495.444 426.25 493.4L426.42 493.31C426.84 492.71 427.26 492.12 427.71 491.54 427.055 489.319 427.237 486.936 428.22 484.84 413 500.63 411.18 523.24 415.16 532.68 416.198 535.248 418.346 537.206 421 538 421.933 538.27 422.899 538.405 423.87 538.4 425.321 538.388 426.759 538.124 428.12 537.62L428.12 537.62C429.774 537.165 431.403 536.625 433 536L496 510.28C496.952 509.979 497.61 509.108 497.64 508.11 497.666 499.391 494.472 490.969 488.67 484.46Z" stroke="#FFFFFF" fill="#FFFFFF"/></g></svg>