<svg width="96" height="96" xmlns="http://www.w3.org/2000/svg" xmlns:xlink="http://www.w3.org/1999/xlink" xml:space="preserve" overflow="hidden"><defs><clipPath id="clip0"><rect x="285" y="24" width="96" height="96"/></clipPath></defs><g clip-path="url(#clip0)" transform="translate(-285 -24)"><path d="M340 31C340 29.8954 339.105 29 338 29L328 29C326.895 29 326 29.8954 326 31L326 38 340 38Z" stroke="#FFFFFF" fill="#FFFFFF"/><path d="M352 64.652C351.995 63.0774 351.624 61.5256 350.914 60.12L340.808 41 325.192 41 315.055 60.181C314.363 61.5699 314.002 63.1002 314 64.652L314 67.5C314 69.125 314.532 70.7052 315.514 72 314.532 73.2948 314 74.875 314 76.5L314 77.5C314 79.125 314.532 80.7052 315.514 82 314.532 83.2948 314 84.875 314 86.5L314 87.5C314 89.1249 314.532 90.7052 315.514 92 314.532 93.2948 314 94.8751 314 96.5L314 106C314.006 110.968 318.032 114.994 323 115L343 115C347.968 114.994 351.994 110.968 352 106L352 96.5C352 94.8751 351.468 93.2948 350.486 92 351.468 90.7052 352 89.1249 352 87.5L352 86.5C352 84.875 351.468 83.2948 350.486 82 351.468 80.7052 352 79.125 352 77.5L352 76.5C352 74.875 351.468 73.2948 350.486 72 351.468 70.7052 352 69.125 352 67.5ZM346 67.5C346 68.3284 345.328 69 344.5 69L341 69 341 75 344.5 75C345.328 75 346 75.6716 346 76.5L346 77.5C346 78.3284 345.328 79 344.5 79L341 79 341 85 344.5 85C345.328 85 346 85.6716 346 86.5L346 87.5C346 88.3284 345.328 89 344.5 89L341 89 341 95 344.5 95C345.328 95 346 95.6716 346 96.5L346 106C346 107.657 344.657 109 343 109L323 109C321.343 109 320 107.657 320 106L320 96.5C320 95.6716 320.672 95 321.5 95L325 95 325 89 321.5 89C320.672 89 320 88.3284 320 87.5L320 86.5C320 85.6716 320.672 85 321.5 85L325 85 325 79 321.5 79C320.672 79 320 78.3284 320 77.5L320 76.5C320 75.6716 320.672 75 321.5 75L325 75 325 69 321.5 69C320.672 69 320 68.3284 320 67.5L320 64.652C319.999 64.0539 320.132 63.4632 320.391 62.924L328.808 47 337.192 47 345.578 62.863C345.855 63.4188 345.999 64.0311 346 64.652Z" stroke="#FFFFFF" fill="#FFFFFF"/></g></svg>